<?xml version="1.0" encoding="utf-8"?>
<!-- Generator: Adobe Illustrator 19.0.0, SVG Export Plug-In . SVG Version: 6.00 Build 0)  -->
<svg version="1.1" id="Warstwa_1" xmlns="http://www.w3.org/2000/svg" xmlns:xlink="http://www.w3.org/1999/xlink" x="0px" y="0px"
	 viewBox="0 0 595.3 637.8" style="enable-background:new 0 0 595.3 637.8;" xml:space="preserve">
<style type="text/css">
	.st0{clip-path:url(#XMLID_17_);fill:#020203;}
</style>
<g id="XMLID_10_">
	<defs>
		<rect id="XMLID_4_" x="47.6" y="44.6" width="500.1" height="559.3"/>
	</defs>
	<clipPath id="XMLID_16_">
		<use xlink:href="#XMLID_4_"  style="overflow:visible;"/>
	</clipPath>
</g>
<g id="XMLID_15_">
	<defs>
		<rect id="XMLID_5_" x="35.4" y="44.6" width="523.8" height="490.2"/>
	</defs>
	<clipPath id="XMLID_17_">
		<use xlink:href="#XMLID_5_"  style="overflow:visible;"/>
	</clipPath>
	<path id="XMLID_22_" class="st0" d="M297.1,513.8h237.4c2.9,0,2.9,0,2.9-2.8c0-147.6,0-295.2,0.1-442.8c0-2.1-0.4-2.8-2.8-2.8
		c-158.2,0.1-316.4,0.1-474.6,0c-2.3,0-2.8,0.6-2.8,2.7c0.1,147.6,0.1,295.3,0,443c0,2,0.4,2.6,2.7,2.6
		C138.9,513.8,218,513.8,297.1,513.8 M559.2,44.6c0,162.7,0,325.5,0,488.2c0,1.6-0.4,1.9-2,1.9c-173.3,0-346.5,0-519.8,0
		c-1.6,0-2-0.4-2-1.9c0-162.7,0-325.5,0-488.2H559.2z"/>
	<path id="XMLID_19_" class="st0" d="M251.8,189.4c-0.4,1.1-0.6,1.6-0.7,2.2c-2,10.7-4.6,21.2-7.3,31.8c-5.3,21.1-11.2,42-17.2,63
		c-0.4,1.4-0.5,2,1.5,2c15.9-0.1,31.7-0.1,47.5,0c1.9,0,2.1-0.4,1.7-2.1c-7.7-28.8-15.9-57.4-23-86.3
		C253.4,196.6,252.7,193.3,251.8,189.4 M326.1,387.1c-5.7,0-11.3,0-17,0c-3.5,0-3.7-0.3-4.6-3.5c-5.7-19.9-11.5-39.7-17.1-59.6
		c-0.4-1.6-1.1-1.9-2.7-1.9c-21.8,0-43.6,0.1-65.5,0c-1.6,0-2.2,0.5-2.6,2c-5.4,19.9-10.8,39.7-16.3,59.6c-0.9,3.2-1.1,3.4-4.6,3.4
		c-10,0-19.9,0-29.9,0c-3.6,0-4.1-0.6-3.1-4c8.4-28.3,16.8-56.6,25.3-84.9c12.2-41,24.4-82,36.6-123c1.6-5.3,1.7-10.7,2-16.2
		c0.1-2,0.8-2.7,2.9-2.7c14.4,0.1,28.8,0,43.2,0c3.5,0,3.6,0,4.5,3.2c9.5,30.9,19,61.8,28.4,92.7c13.3,43.4,26.6,86.8,40,130.1
		c1.4,4.5,1.2,4.8-3.7,4.8C336.6,387.1,331.4,387.1,326.1,387.1"/>
	<path id="XMLID_8_" class="st0" d="M378.9,301.6c0-26.7,0-53.3,0-80c0-4.8-0.4-4.8,5.2-4.8c10.2,0,20.4,0,30.5,0
		c3,0,3.6,0.5,3.6,3.4c0,54.6,0,109.2,0,163.8c0,2.6-0.4,3.1-3.1,3.1c-10.9,0-21.8,0-32.7,0c-2.9,0-3.4-0.7-3.4-3.6
		C378.9,356.2,378.9,328.9,378.9,301.6"/>
	<path id="XMLID_6_" class="st0" d="M398,193.1c-13.4,0-21.7-8-21.8-21.1c-0.1-12.8,8.9-21.5,22.2-21.5c13.4,0,22.3,8.6,22.2,21.4
		C420.5,185,411.9,193.1,398,193.1"/>
</g>
</svg>
