<?xml version="1.0" encoding="utf-8"?>
<!-- Generator: Adobe Illustrator 19.0.0, SVG Export Plug-In . SVG Version: 6.00 Build 0)  -->
<svg version="1.1" id="Warstwa_1" xmlns="http://www.w3.org/2000/svg" xmlns:xlink="http://www.w3.org/1999/xlink" x="0px" y="0px"
	 viewBox="0 0 595.3 637.8" style="enable-background:new 0 0 595.3 637.8;" xml:space="preserve">
<style type="text/css">
	.st0{clip-path:url(#XMLID_10_);}
</style>
<g id="XMLID_9_">
	<defs>
		<rect id="XMLID_4_" x="85.8" y="43.6" width="423.5" height="559.3"/>
	</defs>
	<clipPath id="XMLID_10_">
		<use xlink:href="#XMLID_4_"  style="overflow:visible;"/>
	</clipPath>
	<path id="XMLID_6_" class="st0" d="M206.3,457.4c24.8-25.4,50.1-50.3,74.9-75.7c9.6-9.8,26.5-18.2,26.4-30.2
		c-0.1-11.9-17.7-19.6-26.4-30.2c-7.7-9.4-14.5-12.3-22.7-0.4c-5.3,7.7-11.7,14.6-17.7,21.9c-1.8-1.1-3.7-2.2-5.5-3.3
		c0-31.5,0-63,0-94.5c0-33.3-3.8-66.5,0.2-99.8c2.7-23.1,12-33.7,34.5-38c15.4-2.9,30.9-2.5,46.4-1.9c25.1,1,37.1,12.8,39.2,38.1
		c0.4,5,0.4,10,0.1,15c-0.5,6.8,1.6,10.1,9.1,10c22.1-0.3,44.3-0.2,66.5,0c5.6,0,9.8-0.8,9.9-7.8c1-51-12.2-94.9-72.7-109
		c-43.6-10.1-88-9.7-132.1-3.2c-44.6,6.7-68.2,31.6-73.5,77.2c-6.2,53.1-1.4,106.5-2.6,159.8c-0.4,18.1-0.1,36.2-0.1,56.5
		c-14.5-9.8-22.9-29.8-35.3-28.6c-13.6,1.3-22.5,19.6-33.6,30.4c-0.4,0.4-0.7,0.9-1.1,1.3c-6.2,5.1-5,9.2,0.5,14.7
		c33.2,32.7,66.2,65.5,98.8,98.8C196.5,465.8,200.3,463.4,206.3,457.4"/>
	<path id="XMLID_5_" class="st0" d="M503.9,285.9c-32.6-31.7-65-63.7-96.8-96.2c-7.3-7.4-11.1-7.1-18.2,0.2
		c-24.2,25.2-49.4,49.5-73.8,74.5c-10,10.2-28.2,19.8-27,31.6c1.1,11.2,18.3,20.7,28,31.3c6.9,7.6,12.3,9.5,19.7,0.1
		c6.6-8.3,14.9-15.2,25.6-26c0,23.4,0.2,41.6,0,59.7c-0.7,47.2,2.1,94.5-1.8,141.6c-2,24-11,34.1-34.6,37.1
		c-13.7,1.8-27.6,1.4-41.5,1.4c-28,0.1-38-8.3-42.4-35.8c-1-6-1.4-12.2-0.8-18.2c0.8-7.4-1.6-9.6-8.9-9.5
		c-21.6,0.4-43.2,0.2-64.8,0.1c-6.1,0-10.5,0.4-11,8.5c-2.8,49.5,12,95.1,70.7,108.5c47.4,10.8,95.8,10.7,143.4,0.7
		c38.6-8.1,57.2-30.7,63.4-69.6c4.5-28.2,2.1-56.6,2.4-84.8c0.5-44.8,0.1-89.6,0.1-136.1c16.1,8,22.1,30.3,36,27.5
		c12.4-2.6,21.6-19.4,32.7-29.4C511.4,296.6,510.5,292.3,503.9,285.9"/>
</g>
</svg>
