<?xml version="1.0" encoding="utf-8"?>
<!-- Generator: Adobe Illustrator 19.0.0, SVG Export Plug-In . SVG Version: 6.00 Build 0)  -->
<svg version="1.1" id="Warstwa_1" xmlns="http://www.w3.org/2000/svg" xmlns:xlink="http://www.w3.org/1999/xlink" x="0px" y="0px"
	 viewBox="0 0 595.3 637.8" style="enable-background:new 0 0 595.3 637.8;" xml:space="preserve">
<style type="text/css">
	.st0{fill:#020203;}
</style>
<path id="XMLID_8_" class="st0" d="M142.8,147.4h155.4h0.2h155.3l-11.2,125l-1.5,16.6l-14.6,162.6l-0.9,10.4l-127.1,35l-0.3,0.1
	L171,462l-8.7-97h28.7h33.6l4.4,49.3l69.2,18.6l0,0v0l69.2-18.6l7.2-80.1h-76.2h-0.2H159.6l-5.6-61.8h144.3h0.2h81.6l5.7-63.2h-87.3
	h-0.2H148.5L142.8,147.4z M50.5,44.5L95.7,548L298.2,604l203.1-56l45.2-503.5H50.5z"/>
</svg>
