<?xml version="1.0" encoding="utf-8"?>
<!-- Generator: Adobe Illustrator 19.0.0, SVG Export Plug-In . SVG Version: 6.00 Build 0)  -->
<svg version="1.1" id="Warstwa_1" xmlns="http://www.w3.org/2000/svg" xmlns:xlink="http://www.w3.org/1999/xlink" x="0px" y="0px"
	 viewBox="0 0 595.3 637.8" style="enable-background:new 0 0 595.3 637.8;" xml:space="preserve">
<style type="text/css">
	.st0{clip-path:url(#XMLID_16_);}
</style>
<g id="XMLID_10_">
	<defs>
		<rect id="XMLID_4_" x="47.6" y="44.6" width="500.1" height="559.3"/>
	</defs>
	<clipPath id="XMLID_14_">
		<use xlink:href="#XMLID_4_"  style="overflow:visible;"/>
	</clipPath>
</g>
<g id="XMLID_13_">
	<defs>
		<rect id="XMLID_5_" x="43.5" y="66.8" width="508.1" height="505.5"/>
	</defs>
	<clipPath id="XMLID_16_">
		<use xlink:href="#XMLID_5_"  style="overflow:visible;"/>
	</clipPath>
	<path id="XMLID_15_" class="st0" d="M387.9,316.3c-6.2,0.4-12.3,0.6-18.4,1.3c-6.9,0.8-13.9,2-20.8,3.3c-12,2.2-23.8,5.3-35.3,9.2
		c-6.3,2.1-7.5,5.8-6.5,10.9c0.5,2.7,1.2,5.4,1.9,8.1c4.6,17.8,10.3,35.3,18.1,52c4.5,9.7,9.8,19.1,16.5,27.5
		c4.6,5.7,9.8,10.8,16.3,14.4c15.7,8.7,32.4,11.4,50,7.3c35.6-8.2,56.3-41.7,51.9-74.9c-1.7-13-6.8-24.6-15.3-34.6
		c-8.4-9.9-18.5-17.3-31.3-20.9C406.2,317.4,397.1,316.5,387.9,316.3 M297.7,149.7c-2.1,0-4.1-0.1-6.2,0c-1.3,0-2.6,0.2-3.8,0.4
		c-14.6,2.4-27.4,8.6-37.9,19c-13.4,13.4-20.3,29.6-20.6,48.5c-0.1,7,1.4,13.7,3.7,20.3c3.8,10.7,9.5,20.4,16,29.7
		c11.8,16.7,25.8,31.5,41,45.2c0.9,0.8,1.9,1.5,2.9,2.2c4.1,2.6,6.9,2.5,10.8-0.4c0.6-0.5,1.2-1,1.8-1.6c3.5-3.5,7-6.9,10.5-10.4
		c11-11.2,21.3-22.9,30.4-35.8c5.9-8.3,11.1-16.9,15-26.3c2.5-6.1,4.4-12.4,4.9-19c0.4-6.4-0.2-12.8-1.6-19.1
		C357.6,172.8,330.8,149.6,297.7,149.7 M207.4,316.3c-6.3,0.1-12.9,0.5-19.5,1.7c-6.7,1.2-13.1,3.2-19,6.5
		c-23.9,13.3-37,38.7-35.3,64.2c1,14.7,6.1,27.9,15.7,39c17.4,20.1,39.6,28,65.9,23.4c15.5-2.7,28.3-10.2,37.9-22.8
		c6.3-8.3,11.5-17.2,15.9-26.6c8.5-18.3,14.6-37.4,19.3-57c0.4-1.8,0.7-3.6,0.8-5.5c0.1-3.4-1.4-6.1-4.4-7.8
		c-1.3-0.8-2.8-1.4-4.3-1.9c-14.1-4.4-28.3-8-42.9-10.4C227.7,317.5,217.8,316.5,207.4,316.3 M295.1,66.7h5.6
		c0.9,0.1,1.8,0.4,2.7,0.4c6.6,0.4,13.2,0.4,19.7,1.1c7.5,0.8,14.9,2,22.3,3.3c15.7,2.8,31,7.3,45.9,13.2
		c28.1,11.1,53.4,26.6,75.8,46.7c28.6,25.6,50.4,56,65.2,91.3c11.2,26.6,17.5,54.4,18.9,83.2c0.5,10,0.1,20-0.2,29.9
		c-0.3,10.4-1.9,20.7-3.8,31c-4.9,25.7-13.5,50.1-26.1,73c-22.5,41.1-54.1,73.6-94.6,97.5c-38.3,22.5-79.8,33.9-124.1,34.9
		c-15.4,0.4-30.6-0.9-45.8-3.3c-16.2-2.6-32.1-6.8-47.5-12.5c-29.1-10.8-55.3-26.4-78.7-46.8c-23.9-20.9-43.3-45.4-58-73.4
		c-12.7-24.3-21.2-50-25.5-77c-1.4-9-2.4-18.1-2.8-27.2c-0.1-1.9-0.5-3.8-0.8-5.7v-13.3c0.2-0.8,0.5-1.6,0.6-2.5
		c0.6-6.5,1-13.1,1.6-19.6c1.4-13.7,4.1-27.2,8-40.4c11.2-38.8,30.5-73.1,58.2-102.6c33.8-36,74.7-60.3,122.7-72.8
		c8.9-2.3,18-4.1,27.1-5.4c5.3-0.8,10.7-1.3,16-1.8c5-0.4,10-0.4,15-0.7C293.5,67.1,294.3,66.9,295.1,66.7"/>
</g>
</svg>
