<?xml version="1.0" encoding="utf-8"?>
<!-- Generator: Adobe Illustrator 19.0.0, SVG Export Plug-In . SVG Version: 6.00 Build 0)  -->
<svg version="1.1" id="Warstwa_1" xmlns="http://www.w3.org/2000/svg" xmlns:xlink="http://www.w3.org/1999/xlink" x="0px" y="0px"
	 viewBox="0 0 595.3 637.8" style="enable-background:new 0 0 595.3 637.8;" xml:space="preserve">
<style type="text/css">
	.st0{clip-path:url(#XMLID_9_);}
</style>
<g id="XMLID_8_">
	<defs>
		<rect id="XMLID_4_" x="35.3" y="51.9" width="523.8" height="535.2"/>
	</defs>
	<clipPath id="XMLID_9_">
		<use xlink:href="#XMLID_4_"  style="overflow:visible;"/>
	</clipPath>
	<path id="XMLID_5_" class="st0" d="M300.6,51.9c20.9,0,35.8,18.3,43.7,26.5c70.7,73.2,124.3,135.2,195.6,207.7
		c7.2,7.4,19.1,18.4,19.1,33.2c0,14.9-13.9,28.6-21.9,36.8c-34.6,35.2-69.2,70.5-103.8,105.8c-37.2,37.9-74.3,75.9-111.5,113.7
		c-14.6,14.9-35.2,15.3-49.3,0.9c-75.5-76.9-150.8-154-226.6-230.6C31.2,330.9,32,307,46.3,292.8c50.3-50.4,99.9-101.6,149.8-152.4
		c1.7-1.7,3.5-3.4,5.6-5.4c19.2,19.7,38,38.8,56.6,58.2c1.4,1.4,1.5,5,0.9,7.3c-4.6,18.8,2.4,36.8,19,46.3c3.7,2.1,4.3,4.5,4.3,8.3
		c-0.1,45-0.1,90,0,135.1c0,4.2-1.1,6.5-4.8,8.7c-13.2,7.6-19.6,19.9-20.1,34.9c-0.5,19,14,36.2,32.7,40
		c17.4,3.5,36.2-6.7,43.5-23.8c7.5-17.4,2.2-38.1-13.3-48.7c-4.8-3.3-5.7-6.7-5.7-11.9c0.2-42.9,0.1-85.9,0.1-128.8v-8.8
		c2.8,2.6,4.5,4,6,5.6c14.5,14.8,28.8,29.7,43.5,44.2c3.8,3.8,4.8,7.1,3.4,12.6c-7.2,29.3,20.5,56.2,48.9,47.7
		c20.5-6.1,32.9-27,28.2-47.3c-5.2-22.5-24.7-35.5-47.3-31c-4,0.8-6.2-0.1-8.8-2.8c-16.7-17.2-33.4-34.2-50.2-51.2
		c-2.6-2.7-3.6-4.9-2.7-9.1c6.1-28.8-18.6-54.2-46.9-48c-4.1,0.9-6.3-0.2-8.8-2.9c-17.5-18-35-35.8-52.5-53.7
		c-1.2-1.2-2.2-2.7-3.5-4.3c13.7-13.9,22.9-24.2,36.7-37.3C267.8,67.6,284.7,51.9,300.6,51.9"/>
</g>
</svg>
