<?xml version="1.0" encoding="utf-8"?>
<!-- Generator: Adobe Illustrator 19.0.0, SVG Export Plug-In . SVG Version: 6.00 Build 0)  -->
<svg version="1.1" id="Warstwa_1" xmlns="http://www.w3.org/2000/svg" xmlns:xlink="http://www.w3.org/1999/xlink" x="0px" y="0px"
	 viewBox="0 0 595.3 637.8" style="enable-background:new 0 0 595.3 637.8;" xml:space="preserve">
<style type="text/css">
	.st0{clip-path:url(#XMLID_12_);}
</style>
<g id="XMLID_11_">
	<defs>
		<rect id="XMLID_4_" x="167.5" y="27.7" width="262.1" height="575.8"/>
	</defs>
	<clipPath id="XMLID_12_">
		<use xlink:href="#XMLID_4_"  style="overflow:visible;"/>
	</clipPath>
	<path id="XMLID_9_" class="st0" d="M187.9,368.2c1,0.4,1.8,0.7,2.6,1c5.4,1.9,10.8,1.5,16-0.7c3.6-1.5,6.8-3.5,9.7-6.1
		c3.3-2.9,6.4-5.9,9.6-8.9c0.3-0.3,0.6-0.6,1-0.9c0.1,0,0.2,0.1,0.2,0.1c-0.1,0.5-0.1,1-0.2,1.5c-0.9,3-1.8,6-2.8,9
		c-1.4,4.4-2.9,8.7-3.7,13.2c-0.4,2-0.7,4-0.4,6.1c0.1,0.6,0.2,1.3,0.5,1.9c0.8,1.8,2.7,2.7,4.6,2c1.1-0.4,1.9-1.1,2.6-2
		c1.2-1.6,2.1-3.3,2.9-5.1c1.9-4.5,3.3-9.1,4.5-13.8c3.3-12.5,7.1-24.9,11.2-37.2c1.4-4.4,2.7-8.9,3.5-13.5c0.4-2.4,0.7-4.9,0.1-7.3
		c-0.4-1.8-1.5-3.1-3.5-3.4c-1.4-0.2-2.7,0.2-3.6,1.2c-0.9,0.9-1.7,1.9-2.3,3c-1.5,2.5-2.4,5.2-3.3,8c-0.8,2.5-1.6,5-2.3,7.5
		c-1.1,3.9-2.9,7.3-5.4,10.5c-4.6,5.9-9.7,11.3-15.6,16c-2.6,2-5.2,3.8-8.3,5.1c-1.4,0.6-2.9,1-4.5,1c-2.2,0-4-0.9-5.2-2.7
		c-1.1-1.7-1.6-3.5-2-5.5c-0.6-3.9-0.4-7.8,0.3-11.7c1.4-7.5,4-14.7,7.1-21.6c4.2-9.6,9.2-18.7,15.4-27.2c1.5-2.2,3.2-4.3,5-6.2
		c3.5-3.7,7.6-6.6,12.4-8.3c1.4-0.5,2.8-0.8,4.3-0.8c2.4-0.1,4.6,0.7,6.1,2.5c1.1,1.3,2.1,2.7,3,4.1c0.9,1.3,1.5,2.8,2.4,4.1
		c0.7,1.1,1.5,2.1,2.3,3c1,1,2.2,1.5,3.7,1.4c0.4,0,0.9,0,1.3-0.1c3.4-0.6,5.1-3,4.5-6.3c-0.2-1.5-0.7-3-1.4-4.4
		c-3.3-6.5-8.1-11.5-14.6-14.9c-3-1.6-6.2-2-9.6-1.8c-6.9,0.6-12.9,3.4-18.3,7.6c-5.3,4.2-9.7,9.2-13.5,14.7
		c-5.2,7.3-9.4,15.3-13.2,23.4c-2.8,6-5.2,12.2-7.5,18.4c-0.1,0.3-0.2,0.6-0.6,1c-4.9-47-9.9-94.1-14.8-141.2
		c0.3,0.1,0.5,0.1,0.6,0.1c3.6,2,7.5,3.2,11.5,4.3c6.5,1.8,13,3,19.6,3.9c6.1,0.8,12.2,1.6,18.4,2.3c4,0.4,8,0.8,12.1,1
		c9.3,0.6,18.5,1.2,27.8,1.5c9.2,0.3,18.4,0.5,27.6,0.6c9.6,0.1,19.2,0.1,28.8-0.1c8.7-0.1,17.5-0.4,26.2-0.7
		c6.7-0.3,13.5-0.6,20.2-1.1c6.7-0.5,13.3-1.1,20-1.8c9.9-1.1,19.7-2.5,29.4-4.8c4.4-1,8.7-2.2,12.9-4c1.1-0.5,2.2-1,3.5-1.7
		c-0.1,1.1-0.2,2.1-0.3,3.1c-0.4,4-0.9,7.9-1.4,11.9c-0.5,4.5-1,9-1.5,13.5c-0.4,3.8-0.8,7.6-1.3,11.3c-0.4,3.8-0.9,7.6-1.3,11.4
		c-0.4,3.8-0.8,7.6-1.3,11.3c-0.4,3.8-0.9,7.6-1.3,11.4c-0.4,3.8-0.8,7.6-1.3,11.3c-0.4,3.8-0.9,7.6-1.3,11.4
		c-0.4,3.8-0.8,7.6-1.3,11.3c-0.4,3.8-0.9,7.6-1.3,11.4c-0.4,3.8-0.8,7.6-1.3,11.3c-0.4,3.8-0.9,7.6-1.3,11.4
		c-0.4,3.7-0.8,7.4-1.2,11.1c-0.1,0.7-0.1,1.4-0.3,2.1c-0.1,0.4-0.3,0.9-0.6,1.2c-1.7,1.8-3.3,3.7-5.2,5.3c-5.8,5-12.2,9-19.4,11.6
		c-1.7,0.6-3.5,0.9-5.3,1.4c-0.2,0-0.4,0.1-0.6,0.1c-0.8,0-1.1-0.4-0.7-1.1c0.2-0.3,0.4-0.7,0.7-0.9c1.2-1.3,2.4-2.7,3.7-4
		c4.1-4.1,8.3-8.1,12-12.6c2.4-2.9,4.5-6,6.1-9.4c1.1-2.4,1.8-4.9,1.8-7.6c-0.1-2.1-0.7-4.1-1.8-5.9c-1.5-2.3-3.7-3.5-6.5-3.8
		c-3.3-0.3-6.4,0.5-9.4,1.7c-5.8,2.3-10.9,5.6-15.5,9.9c-0.1,0.1-0.3,0.3-0.6,0.6c0.2-0.9,0.4-1.6,0.6-2.4c0.2-1.2,0.4-2.3,0.2-3.5
		c-0.3-1.6-1.2-2.7-2.7-3.3c-2.4-0.8-4-0.3-5.2,1.8c-0.7,1.2-1.3,2.5-1.7,3.8c-1.1,3-2,6.1-3,9.1c-1.4,3.9-3,7.6-5.5,10.9
		c-3,4-6.5,7.5-10.9,10.1c-2.3,1.4-4.9,2.4-7.5,3.2c-1.8,0.6-3.6,1.2-5.4,1.8c-0.1,0-0.2,0.1-0.3,0.1c-1.3,0.4-2.1-0.1-2.2-1.4
		c-0.1-1.1-0.1-2.2,0.1-3.2c0.6-3.9,1.9-7.7,3.2-11.4c3.2-9.2,7-18.1,10.9-27.1c3.3-7.7,6.7-15.3,10-22.9c1.7-3.9,3-7.9,3.8-12.1
		c0.3-1.9,0.5-3.7,0.1-5.6c-0.3-1.3-0.7-2.4-1.8-3.3c-1.3-1-2.6-1.1-3.9-0.2c-0.9,0.6-1.7,1.4-2.3,2.3c-1.4,2-2.7,4.1-3.8,6.3
		c-2.6,5.1-4.7,10.5-6.8,15.8c-4,10.1-8.1,20.3-12.1,30.4c-2.9,7.2-5.2,14.6-7.1,22.1c-0.1,0.3-0.2,0.5-0.2,0.8
		c-0.6,3.3-2.6,5.7-5.4,7.5c-2.2,1.4-4.6,2.6-7.2,3.1c-0.3,0.1-0.7,0.1-1,0.1c-1.8,0.1-2.8-0.5-3.5-2.1c-0.3-0.7-0.5-1.5-0.6-2.2
		c-0.3-2.7,0.3-5.3,1-7.8c1.4-4.7,3.3-9.1,5.1-13.6c1.4-3.5,2.8-7,4.2-10.5c0.5-1.2,0.7-2.5,1-3.8c0.1-0.6,0.1-1.1,0.1-1.7
		c-0.1-2-1.6-3-3.6-2.4c-1.2,0.4-2.2,1.3-3.1,2.2c-1.5,1.7-2.8,3.6-3.9,5.6c-2.1,4.1-4.2,8.2-6.1,12.4c-1.8,4.1-4.1,7.8-7.1,11.2
		c-2.9,3.2-5.7,6.4-9,9.2c-1.4,1.2-3,2.2-4.6,3.1c-0.8,0.5-1.9,0.8-2.9,0.9c-1.7,0.2-2.7-0.7-3.1-2.3c-0.4-1.8,0-3.5,0.4-5.2
		c1-4.2,2.6-8.2,4.2-12.2c1.6-3.9,3.4-7.7,5.3-11.5c1-2,1.8-4.1,2.6-6.3c0.5-1.5,0.8-3,0.4-4.6c-0.3-1.1-0.8-1.9-1.8-2.4
		c-0.8-0.5-1.6-0.6-2.4,0c-0.8,0.6-1.6,1.1-2.2,1.8c-2,2-3.6,4.4-5.1,6.9c-5.1,8.5-9,17.5-11.3,27.1c-0.8,3.4-1.3,6.9-1,10.4
		c0.1,1.6,0.4,3.2,1,4.7c0.9,2.3,2.5,3.8,4.9,4.6c5.5,1.9,10.6,0.9,15.4-2.1c4.4-2.7,7.8-6.5,10.6-10.8c0.3-0.4,0.5-0.8,1-1.3
		c0,0.3,0,0.6,0,0.8c0.1,1.6,0,3.2,0.3,4.7c1,5.1,4.4,7.6,9.4,7.7c3.6,0.1,6.9-0.9,10.1-2.5c1.9-1,3.8-2.2,5.7-3.3
		c0.1,0.3,0.3,0.7,0.5,1.1c1.6,3.2,4.2,5,7.9,4.9c1.5,0,3-0.3,4.5-0.6c3.5-0.9,6.7-2.5,9.7-4.4c2.7-1.7,5.3-3.5,7.9-5.2
		c0.4-0.3,0.9-0.6,1.5-1.1c-0.2,0.7-0.3,1.1-0.4,1.4c-1.7,5.1-4.1,10.1-6.2,15c-2.6,5.8-5.2,11.7-7.7,17.5c-1.1,2.7-2,5.5-2.4,8.4
		c-0.1,1.2-0.1,2.4,0.2,3.5c0.4,2.2,2.8,3.6,5,2.1c1-0.7,1.9-1.4,2.7-2.3c2.1-2.3,3.6-4.9,5-7.6c3.5-6.4,6.3-13,8.9-19.8
		c3.4-8.4,6.9-16.7,11-24.8c2.6-5.2,5.6-10.2,9.3-14.8c2.8-3.5,6.1-6.5,10-8.6c3-1.6,6.2-2.5,9.6-2.9c0.7-0.1,1.4-0.1,1.8,0.5
		c0.4,0.6,0,1.3-0.4,1.8c-0.9,1.2-1.8,2.3-2.8,3.4c-3.1,3.1-6.2,6.2-9.3,9.4c-2.8,2.9-5.5,5.8-7.8,9.1c-1.7,2.4-3.1,4.8-4.1,7.6
		c-0.8,2.6-0.7,5.1,0.2,7.6c1.1,3.2,3.6,4.9,6.9,5.3c2.8,0.4,5.5-0.1,8.2-0.8c4.3-1.1,8.3-2.9,12.2-5c4.5-2.5,8.9-5.3,12.7-8.7
		c0.1-0.1,0.2-0.1,0.5-0.3c-0.1,0.6-0.1,1.1-0.1,1.7c-0.4,3.8-0.9,7.6-1.3,11.4c-0.4,3.9-0.9,7.8-1.3,11.7
		c-0.4,3.8-0.8,7.6-1.3,11.3c-0.4,3.8-0.9,7.6-1.3,11.4c-0.4,3.7-0.8,7.5-1.3,11.2c-0.4,3.9-0.9,7.7-1.3,11.6c-0.3,3-0.7,6-1,9
		c-0.4,3.9-0.9,7.9-1.3,11.8c-0.3,3.1-0.7,6.2-1,9.3c0,0.2,0,0.3,0,0.5c0,1-0.5,1.6-1.3,2.1c-4.7,2.8-9.8,4.9-15,6.8
		c-8.4,3-17,5.1-25.8,6.6c-5.4,0.9-10.8,1.8-16.2,2.5c-4.4,0.6-8.8,0.9-13.2,1.3c-8.9,0.8-17.8,1-26.6,1c-5.6,0-11.3-0.1-16.9-0.3
		c-3.4-0.1-6.8-0.3-10.2-0.5c-4.3-0.3-8.6-0.6-12.9-1.1c-4.3-0.5-8.5-1-12.8-1.7c-12.2-1.9-24.1-4.6-35.6-9.2c-4-1.6-8-3.4-11.7-5.7
		c-0.7-0.5-1-1-1.1-1.8c-0.5-4.8-1-9.6-1.5-14.4c-0.5-4.8-1-9.6-1.5-14.4c-0.5-4.8-1-9.6-1.5-14.4c-0.5-4.8-1-9.6-1.5-14.4
		c-0.4-4-0.9-8.1-1.3-12.1c-0.4-4.1-0.8-8.1-1.3-12.1c-0.1-1.1-0.3-2.2-0.4-3.3C188,369.5,188,368.9,187.9,368.2"/>
	<path id="XMLID_8_" class="st0" d="M203.8,468.6c5.7,2,11.1,3.6,16.6,5c7.7,1.9,15.5,3.5,23.4,4.7c5.7,0.9,11.5,1.6,17.2,2.3
		c4.3,0.5,8.6,0.7,12.9,1c8.2,0.6,16.4,0.8,24.7,0.7c6.5-0.1,13-0.3,19.4-0.6c7.4-0.4,14.8-1.1,22.1-2.1c15.1-2,29.9-4.8,44.4-9.4
		c1.6-0.5,3.1-1,4.6-1.6c0.3-0.1,0.6-0.2,1.2-0.3c-0.3,0.5-0.4,0.9-0.6,1.2c-4.6,7.8-9.3,15.6-13.9,23.5c-0.4,0.7-0.6,1.4-0.7,2.2
		c-0.2,3.5-0.4,7-0.6,10.5c-0.3,4.5-0.6,9-0.8,13.6c-0.2,3-0.3,6.1-0.5,9.1c-0.3,4.6-0.6,9.3-0.9,13.9c-0.2,3-0.4,5.9-0.5,8.9
		c-0.3,4.7-0.6,9.4-0.9,14.1c-0.2,2.8-0.3,5.7-0.5,8.5c-0.2,4.2-0.5,8.4-0.7,12.7c-0.1,1.2-0.6,2.3-1.4,3.2
		c-1.4,1.6-3.1,2.7-4.9,3.7c-3.8,2-7.8,3.3-11.9,4.4c-5.3,1.4-10.8,2.5-16.3,3.3c-6.3,0.9-12.5,1.5-18.9,2
		c-6.9,0.4-13.9,0.7-20.8,0.5c-5-0.1-10-0.2-15-0.5c-11.3-0.7-22.6-2-33.6-4.8c-4.3-1.1-8.6-2.3-12.6-4.4c-1.6-0.8-3.2-1.8-4.6-2.9
		c-1.8-1.3-2.7-3.2-2.8-5.4c-0.4-6.8-0.9-13.5-1.4-20.2c-0.3-5.2-0.7-10.4-1-15.5c-0.4-6.2-0.9-12.3-1.3-18.5c-0.3-4-0.5-8-0.8-12.1
		c-0.4-5.1-0.7-10.1-1.1-15.2c-0.1-1.8-0.2-3.5-0.3-5.3c-0.1-1.2-0.4-2.3-1-3.4c-5.2-8.5-10.4-17-15.5-25.5
		C204.3,469.5,204.1,469.2,203.8,468.6"/>
	<path id="XMLID_13_" class="st0" d="M321.7,175.7c-2,0.8-2.7,2-2.1,3.6c0.3,0.9,0.8,1.4,1.6,1.8c1.4,0.7,2.9,1,4.5,1.1
		c4.6,0.4,9.2,0.3,13.7,0.2c2.6-0.1,5.2-0.3,7.7-0.8c0.9-0.2,1.7-0.5,2.5-0.9c1.7-1,1.8-3.1,0.3-4.3c-0.5-0.4-1.2-0.7-1.9-1
		c-0.4,0.7-0.8,1.3-1.2,1.8c0.5,0.3,0.9,0.6,1.4,0.9c-1,0.7-2,0.8-3,0.9c-3.2,0.2-6.5,0.4-9.7,0.5c-3.5,0.1-6.9,0-10.3-0.6
		c-1-0.1-1.9-0.4-2.8-0.7c-0.1,0-0.1-0.2-0.2-0.3c0.2-0.2,0.4-0.5,0.6-0.7C322.4,176.7,322.1,176.2,321.7,175.7 M352.1,156.2
		c1,0.1,1.8,0.2,2.7,0.3c6.3,0.5,12.5,0.9,18.8,1.5c11,1.1,21.9,2.4,32.7,4.6c5.4,1.1,10.8,2.3,15.9,4.3c1.8,0.7,3.6,1.5,5.1,2.7
		c0.7,0.5,1.3,1.2,1.7,1.8c0.7,1.1,0.6,2.2-0.2,3.2c-0.5,0.6-1.1,1.2-1.8,1.6c-2.3,1.6-4.9,2.6-7.5,3.4c-5.2,1.7-10.5,2.9-15.9,3.9
		c-6.9,1.3-13.8,2.3-20.7,3c-7.3,0.8-14.7,1.5-22,2.1c-6.2,0.5-12.4,0.8-18.6,1.2c-17.6,1-35.3,1.2-53,1c-9.3-0.1-18.6-0.4-28-0.7
		c-5.8-0.2-11.6-0.5-17.4-0.9c-6.8-0.5-13.6-1-20.3-1.6c-8.4-0.8-16.8-1.8-25.2-3.2c-7.1-1.2-14.2-2.5-21.1-4.8
		c-2-0.7-4-1.5-5.9-2.5c-1-0.5-1.9-1.1-2.6-1.8c-1.9-1.7-1.8-3.5,0.1-5.2c1.4-1.2,3-2.1,4.7-2.8c4.5-1.9,9.3-3.1,14-4.2
		c6.8-1.5,13.7-2.6,20.6-3.5c5.9-0.7,11.7-1.4,17.6-2c4.2-0.4,8.4-0.7,12.7-1c5.7-0.4,11.4-0.7,17.1-1.1c1.8-0.1,3.7-0.2,5.5-0.2
		c16.3-0.6,32.6-0.9,48.9-0.7c5.9,0.1,11.9,0.3,17.8,0.4c0.5,0,0.9,0,1.4,0c0.1-0.4,0.3-0.8,0.4-1.1c4.4-17.6,8.7-35.1,13.1-52.7
		c0.2-0.7,0.5-1.3,1-1.8c22.5-23.5,44.9-47,67.4-70.6c1.1-1.2,2.3-1.7,3.8-1.2c1.2,0.4,2.5,0.7,3.6,1.3c3.4,1.8,6.3,4.3,8.6,7.5
		c0.9,1.2,1.6,2.5,1.9,3.9c0.2,1,0,1.9-0.7,2.6c-14.2,14.8-28.4,29.5-42.6,44.3c-7,7.3-14,14.6-21,21.9c-0.6,0.6-1,1.3-1.2,2.1
		c-3.7,14.5-7.4,29.1-11.1,43.6C352.2,155.4,352.1,155.7,352.1,156.2"/>
</g>
</svg>
