<?xml version="1.0" encoding="utf-8"?>
<!-- Generator: Adobe Illustrator 19.0.0, SVG Export Plug-In . SVG Version: 6.00 Build 0)  -->
<svg version="1.1" id="Warstwa_1" xmlns="http://www.w3.org/2000/svg" xmlns:xlink="http://www.w3.org/1999/xlink" x="0px" y="0px"
	 viewBox="0 0 595.3 637.8" style="enable-background:new 0 0 595.3 637.8;" xml:space="preserve">
<style type="text/css">
	.st0{clip-path:url(#XMLID_9_);}
</style>
<g id="XMLID_8_">
	<defs>
		<rect id="XMLID_4_" x="50.6" y="44.6" width="495.8" height="559.3"/>
	</defs>
	<clipPath id="XMLID_9_">
		<use xlink:href="#XMLID_4_"  style="overflow:visible;"/>
	</clipPath>
	<path id="XMLID_10_" class="st0" d="M374.5,334.2c-0.6,6.6-1,12.8-1.6,19c-1.1,12-2.2,24.1-3.3,36.1c-0.7,7.3-1.3,14.6-1.9,21.9
		c-0.2,1.8-0.7,3-2.9,3.6c-21.7,5.7-43.3,11.5-65,17.2c-1,0.3-2.1,0.3-3.1,0c-21.9-5.8-43.7-11.6-65.6-17.4c-1.5-0.4-2-1.1-2.1-2.5
		c-1.3-14.6-2.7-29.3-3.9-43.9c-0.2-2.7-0.9-3.6-3.7-3.6c-18.7,0.1-37.4,0.1-56,0.1c-1,0-2,0.1-3.3,0.2c1.4,15.4,2.7,30.4,4,45.4
		c1.5,16.2,3,32.3,4.4,48.5c0.2,2.4,0.9,3.5,3.3,4.2c40.3,11.1,80.6,22.3,121,33.4c2.1,0.6,4.6,0.6,6.7,0
		c28.6-7.8,57.2-15.7,85.8-23.5c11.9-3.3,23.7-6.5,35.6-9.9c1.1-0.3,2.5-1.5,2.9-2.5c0.6-2,0.5-4.2,0.7-6.3c1-11.7,2-23.5,3.1-35.2
		c1.1-12,2.2-24,3.3-36.1c1.1-11.7,2-23.5,3.1-35.2c1.1-12.3,2.2-24.6,3.4-36.9c1-11.5,2-22.9,3.1-34.3c0.4-4.4,0.6-4.4-3.8-4.4
		c-44,0-87.9,0-131.9,0c-2.8,0-5.6,0-8.5,0c-26.5,0-52.9,0-79.4,0.1c-1.9,0-2.5-0.7-2.6-2.5c-1.5-16.8-3-33.5-4.5-50.3
		c-0.3-3.2-0.5-6.5-0.8-10.1c1.7,0,2.9,0,4.1,0c29.3,0,58.6,0.1,87.8,0.1c35,0,70,0,105.1,0c12.4,0,24.7,0,37.1,0.1
		c2.5,0,3.7-0.6,3.7-3.4c-0.1-2.7,0.4-5.4,0.7-8.1c1.3-13.7,2.6-27.3,3.9-41c0.3-3.2,0.5-6.5,0.7-9.8H142.4c0.7,8.2,1.4,16.1,2.1,24
		c1.7,18.1,3.4,36.2,5,54.3c1.5,16.1,2.9,32.2,4.3,48.2c1.7,18.8,3.4,37.5,5.1,56.3c0.4,4.1,0.3,4.1,4.4,4.1
		c69,0,137.9,0.1,206.9,0.1C371.5,334.2,372.7,334.2,374.5,334.2 M297.3,604c-5-1.5-9.9-3.2-14.9-4.6
		c-56.1-15.5-112.2-30.9-168.3-46.3c-5.4-1.5-10.8-3-16.3-4.4c-1.6-0.4-2.3-1-2.5-2.9c-1.6-18.8-3.4-37.5-5-56.3
		c-1.5-16.3-2.8-32.6-4.3-48.8c-1.5-16.3-3-32.5-4.5-48.8c-1.3-14.1-2.4-28.1-3.7-42.2c-1.3-14.2-2.6-28.3-3.9-42.4
		c-1.3-14-2.4-28.1-3.7-42.2c-1.3-14.2-2.6-28.3-3.9-42.4c-1.1-11.7-2.1-23.5-3.1-35.2c-1.3-14.3-2.6-28.5-3.9-42.7
		c-1-11.7-2.1-23.5-3.1-35.2c-1.3-14.3-2.6-28.7-3.9-43c-0.6-7.2-1.3-14.4-1.9-21.8h495.8c-0.4,5.1-0.8,10.1-1.3,15.1
		c-1.1,12.4-2.2,24.8-3.4,37.3c-1.3,14-2.6,28.1-3.9,42.1c-1.3,14.2-2.5,28.3-3.7,42.5c-1.3,14-2.6,28.1-3.8,42.2
		c-1.1,11.8-2.1,23.7-3.1,35.5c-1.3,14.2-2.6,28.3-3.8,42.4c-1.1,11.8-2.1,23.7-3.2,35.5c-1.3,14.3-2.6,28.5-3.9,42.7
		c-1,11.7-2.1,23.5-3.1,35.2c-1.3,14.3-2.6,28.7-3.9,43c-1,11.8-2.1,23.7-3.1,35.5c-1.3,14.2-2.6,28.3-3.8,42.4
		c-0.3,2.9-0.7,5.8-0.7,8.7c0,2.2-0.8,3.2-2.9,3.8c-19.9,5.4-39.7,10.9-59.5,16.3c-46.4,12.8-92.8,25.6-139.2,38.3
		c-0.5,0.1-1,0.5-1.5,0.7H297.3z"/>
</g>
</svg>
