<?xml version="1.0" encoding="utf-8"?>
<!-- Generator: Adobe Illustrator 19.0.0, SVG Export Plug-In . SVG Version: 6.00 Build 0)  -->
<svg version="1.1" id="Warstwa_1" xmlns="http://www.w3.org/2000/svg" xmlns:xlink="http://www.w3.org/1999/xlink" x="0px" y="0px"
	 viewBox="0 0 595.3 637.8" style="enable-background:new 0 0 595.3 637.8;" xml:space="preserve">
<style type="text/css">
	.st0{clip-path:url(#XMLID_16_);fill:#020203;}
</style>
<g id="XMLID_10_">
	<defs>
		<rect id="XMLID_4_" x="47.6" y="44.6" width="500.1" height="559.3"/>
	</defs>
	<clipPath id="XMLID_15_">
		<use xlink:href="#XMLID_4_"  style="overflow:visible;"/>
	</clipPath>
</g>
<g id="XMLID_14_">
	<defs>
		<rect id="XMLID_5_" x="35" y="44.6" width="524" height="508.8"/>
	</defs>
	<clipPath id="XMLID_16_">
		<use xlink:href="#XMLID_5_"  style="overflow:visible;"/>
	</clipPath>
	<path id="XMLID_20_" class="st0" d="M536.6,526.7c0,3.4-0.6,4.4-4.3,4.4c-156.9-0.1-313.9-0.1-470.8,0c-3.4,0-4.1-0.9-4.1-4.2
		c0.1-152,0.1-304.1,0-456.1c0-3.5,1-4.1,4.3-4.1c78.5,0.1,156.9,0.1,235.4,0.1v0.1c78.5,0,156.9,0,235.4-0.1c3.4,0,4.2,0.8,4.2,4.2
		C536.5,222.9,536.5,374.8,536.6,526.7 M558.9,455.7c-0.4-135.7,0.9-271.4-0.6-407.1c0-3.6-1.4-4-4.4-4
		c-169.8,0.1-339.7,0.1-509.5,0.1c-2,0-4,0.1-5.9,0c-2.3-0.2-3.3,0.6-3.2,3.1c0.1,3.9-0.1,7.9-0.1,11.8c0,66.3,0,132.6,0,198.9
		c0,97.1,0,194.2,0,291.2c0,1.3-0.6,2.9,1.4,3.4c4.8,0,9.7,0,14.5,0c164.3,0,328.5,0,492.8-0.1c4.7,0,9.4,0.7,14.1,0
		c1.7-0.7,1.1-2.1,1.1-3.3C558.9,518.4,559,487.1,558.9,455.7"/>
	<path id="XMLID_17_" class="st0" d="M369.8,312.1L369.8,312.1c0-17.3-0.1-34.7,0-52c0-2.7-1.1-3.7-3.5-4.1
		c-18.7-3.4-36.2,2.4-47.2,18.8c-9.4,13.8-11.1,29.3-9.9,45.4c0.7,10.7,3.1,21,8.7,30.2c10.7,17.3,31.1,21.9,49.1,17.6
		c2.3-0.5,2.8-1.6,2.8-3.8C369.8,346.7,369.8,329.4,369.8,312.1 M409.2,274.1c0,33.3,0,66.6,0,100c0,4.4,0.4,8.8,0.9,13.1
		c0.2,2.3-0.6,3.6-2.7,4.5c-23,10.6-47,14.8-72.1,11.2c-23.4-3.3-41.9-14.5-54.1-35.1c-7.3-12.4-11-26.1-12.1-40.4
		c-1.5-18.1-0.3-36,7-53.1c8.4-19.6,21.7-34.5,41.1-43.9c15.3-7.4,31.6-9.5,48.3-8.7c3.2,0.2,4.3-0.4,4.3-4c-0.2-17,0-34,0-51
		c0-4.3,0.4-4.7,4.8-4.7c10.2,0,20.4,0.1,30.6,0c2.9,0,3.9,0.8,3.9,3.7c-0.1,36.1-0.1,72.2-0.1,108.3
		C409.1,274.1,409.1,274.1,409.2,274.1"/>
	<path id="XMLID_6_" class="st0" d="M229.6,281.7c0,38.1,0,76.1,0,114.2c0,4.9-0.1,5.1-5,5.1c-9.8,0-19.5,0-29.3,0
		c-4.6,0-4.9-0.2-4.9-4.9c0-52.3,0-104.6,0-156.9c0-24.1,0-48.1,0-72.2c0-4.6,0.2-4.7,4.7-4.7c10,0,20,0,29.9,0
		c4.2,0,4.5,0.3,4.5,4.6C229.5,205.1,229.5,243.4,229.6,281.7L229.6,281.7z"/>
</g>
</svg>
