<?xml version="1.0" encoding="utf-8"?>
<!-- Generator: Adobe Illustrator 19.0.0, SVG Export Plug-In . SVG Version: 6.00 Build 0)  -->
<svg version="1.1" id="Warstwa_1" xmlns="http://www.w3.org/2000/svg" xmlns:xlink="http://www.w3.org/1999/xlink" x="0px" y="0px"
	 viewBox="0 0 595.3 637.8" style="enable-background:new 0 0 595.3 637.8;" xml:space="preserve">
<style type="text/css">
	.st0{clip-path:url(#XMLID_11_);}
</style>
<g id="XMLID_10_">
	<defs>
		<rect id="XMLID_4_" x="44.3" y="71.4" width="508.3" height="496.2"/>
	</defs>
	<clipPath id="XMLID_11_">
		<use xlink:href="#XMLID_4_"  style="overflow:visible;"/>
	</clipPath>
	<path id="XMLID_8_" class="st0" d="M109.3,141.5c-5,16.5-10.5,30.8-13.6,45.6c-13.1,63-0.2,121.7,32.7,175.4
		c45.7,74.5,111.4,121.6,196.8,136.8c60.4,10.8,119.2,4.2,172-30.7c15.8-10.4,29.3-24.4,42.6-35.7c-0.2,0.5-1.3,3.1-2.6,5.6
		c-38.8,74-99,116.1-180.7,126.8C201.8,585.4,79.7,469,51.9,351.9c-13.2-55.7-10.4-109.6,20-159.3
		C82.5,175.1,96.1,159.4,109.3,141.5"/>
	<path id="XMLID_6_" class="st0" d="M239.1,97.6c-8.8,19.9-14,40.7-14.4,62.5c-0.9,46.1,14.8,86.4,43.4,121.4
		c38.7,47.4,88.4,74.7,148.9,78.6c54,3.5,100-14.9,135.7-58.4c-0.7,2.1-1.2,4.2-2.1,6.1c-25.2,53.7-66.8,85.4-124.4,94.9
		C351.2,415,288.3,390.5,239.3,333c-43.3-50.9-59.7-110-37-176.3C210,134.1,225.8,116.7,239.1,97.6"/>
	<path id="XMLID_5_" class="st0" d="M537.6,207.3c-14.5,26.5-33.3,44.3-60.1,52.1C407.3,280,328.8,228,319,154.1
		c-4.2-31.6,6.3-58.8,27.3-82.7c-28.6,69.4,27.1,149.3,99.5,161c11.7,1.9,23.8,3.3,35.5,2.3C505.7,232.7,512.6,228.6,537.6,207.3"/>
</g>
</svg>
