<?xml version="1.0" encoding="utf-8"?>
<!-- Generator: Adobe Illustrator 19.0.0, SVG Export Plug-In . SVG Version: 6.00 Build 0)  -->
<svg version="1.1" id="Warstwa_1" xmlns="http://www.w3.org/2000/svg" xmlns:xlink="http://www.w3.org/1999/xlink" x="0px" y="0px"
	 viewBox="0 0 595.3 637.8" style="enable-background:new 0 0 595.3 637.8;" xml:space="preserve">
<style type="text/css">
	.st0{clip-path:url(#XMLID_11_);}
</style>
<g id="XMLID_10_">
	<defs>
		<rect id="XMLID_4_" x="35.5" y="64.6" width="524.2" height="509.7"/>
	</defs>
	<clipPath id="XMLID_11_">
		<use xlink:href="#XMLID_4_"  style="overflow:visible;"/>
	</clipPath>
	<path id="XMLID_12_" class="st0" d="M470.3,529.3c-15.7,4.7-31.7,5.7-48,4c-17.9-1.9-34.5-7.3-49.1-17.7
		c-10.8-7.7-19.3-17.4-25.5-29c-0.2-0.4-0.4-0.9-0.8-1.5c13.5-7.6,26.7-15.1,39.5-22.2c4.7,5.4,8.9,10.9,13.8,15.7
		c14.9,14.6,39.7,15.9,54.7,9.2c17.6-7.8,17.7-28.7,4.3-38.1c-7.5-5.2-15.9-8.7-24.2-12.3c-12.7-5.5-25.8-10.3-37.7-17.5
		c-12.1-7.3-22.5-16.3-28.8-29c-5.2-10.3-6.9-21.3-6.8-32.6c0.3-31.1,22.2-54.6,53.8-60.6c14.1-2.6,28-2.3,42,0.8
		c17.9,4,31.4,14,41.6,28.6c1.6,2.3,3,4.6,4.7,7.1c-12.9,8-25.5,16-38.3,23.9c-1.7-2.5-3.2-4.9-4.9-7.2c-8.2-11-19.4-15-33-12.6
		c-8.5,1.5-14.5,6.3-16.6,14.5c-2.1,8.6-0.1,16.4,7.1,22.3c6.4,5.2,14.1,8.4,21.7,11.6c13.4,5.7,27,10.9,39.5,18.2
		c10.9,6.3,20.9,13.7,28.1,24.2c7.9,11.6,10.6,24.5,10.6,38.2C518.1,497.5,500.5,520.3,470.3,529.3 M315.4,493
		c-7.4,20.1-22,32.6-43.1,38c-18.7,4.8-37.5,4.5-55.9-1.7c-19.8-6.6-33.6-19.8-42.8-37.9c-0.2-0.3-0.3-0.7-0.4-1.3
		c13.3-7.8,26.5-15.6,39.9-23.5c1.8,2.9,3.5,5.8,5.4,8.5c4.4,6.7,9.6,12.7,17.9,14.9c7.1,1.9,14.3,1.7,21.3-0.9
		c8.1-3,11.2-9.7,12.4-17.4c0.7-4.5,0.9-9.2,0.9-13.7c0.1-52,0-104,0-156v-3.2h49.3v2.7c0,52.4,0,104.8,0,157.2
		C320.4,470.4,319.5,481.9,315.4,493 M35.5,574.4h524.2V64.6H35.5V574.4z"/>
</g>
</svg>
