<?xml version="1.0" encoding="utf-8"?>
<!-- Generator: Adobe Illustrator 19.0.0, SVG Export Plug-In . SVG Version: 6.00 Build 0)  -->
<svg version="1.1" id="Warstwa_1" xmlns="http://www.w3.org/2000/svg" xmlns:xlink="http://www.w3.org/1999/xlink" x="0px" y="0px"
	 viewBox="0 0 595.3 637.8" style="enable-background:new 0 0 595.3 637.8;" xml:space="preserve">
<style type="text/css">
	.st0{clip-path:url(#XMLID_9_);fill:#020203;}
	.st1{clip-path:url(#XMLID_17_);}
</style>
<g id="XMLID_10_">
	<defs>
		<rect id="XMLID_4_" x="47.6" y="44.6" width="500.1" height="559.3"/>
	</defs>
	<clipPath id="XMLID_8_">
		<use xlink:href="#XMLID_4_"  style="overflow:visible;"/>
	</clipPath>
</g>
<g id="XMLID_14_">
	<defs>
		<rect id="XMLID_5_" x="35" y="44.6" width="524" height="508.8"/>
	</defs>
	<clipPath id="XMLID_9_">
		<use xlink:href="#XMLID_5_"  style="overflow:visible;"/>
	</clipPath>
	<path id="XMLID_20_" class="st0" d="M536.6,526.7c0,3.4-0.6,4.4-4.3,4.4c-156.9-0.1-313.9-0.1-470.8,0c-3.4,0-4.1-0.9-4.1-4.2
		c0.1-152,0.1-304.1,0-456.1c0-3.5,1-4.1,4.3-4.1c78.5,0.1,156.9,0.1,235.4,0.1v0.1c78.5,0,156.9,0,235.4-0.1c3.4,0,4.2,0.8,4.2,4.2
		C536.5,222.9,536.5,374.8,536.6,526.7 M558.9,455.7c-0.4-135.7,0.9-271.4-0.6-407.1c0-3.6-1.4-4-4.4-4
		c-169.8,0.1-339.7,0.1-509.5,0.1c-2,0-4,0.1-5.9,0c-2.3-0.2-3.3,0.6-3.2,3.1c0.1,3.9-0.1,7.9-0.1,11.8c0,66.3,0,132.6,0,198.9
		c0,97.1,0,194.2,0,291.2c0,1.3-0.6,2.9,1.4,3.4c4.8,0,9.7,0,14.5,0c164.3,0,328.5,0,492.8-0.1c4.7,0,9.4,0.7,14.1,0
		c1.7-0.7,1.1-2.1,1.1-3.3C558.9,518.4,559,487.1,558.9,455.7"/>
</g>
<g id="XMLID_23_">
	<defs>
		<rect id="XMLID_13_" x="36.8" y="44.6" width="521.2" height="531.9"/>
	</defs>
	<clipPath id="XMLID_17_">
		<use xlink:href="#XMLID_13_"  style="overflow:visible;"/>
	</clipPath>
	<path id="XMLID_26_" class="st1" d="M209.6,269.1c0,10.8,0.1,21.5,0,32.3c0,3,0.8,4.5,3.9,4.9c13.4,1.7,26.6,1.9,39.3-3.4
		c16.5-6.9,23.8-21.1,21.9-41.8c-1.3-14-11.5-25.6-27.5-28.3c-10.3-1.7-21-0.5-31.5-0.9c-5.5-0.2-6.5,2.5-6.3,7.5
		C209.9,249.3,209.6,259.2,209.6,269.1 M209.6,336.5v80.2h-37.1c-0.1-2.1-0.4-3.9-0.4-5.8c0-66.3,0-132.7-0.1-199
		c0-5,1.5-6.7,6.2-7.2c28.5-3.1,57-6.5,85.4,0.4c29.9,7.2,47.7,27.9,49.1,56c1.8,33.4-13.2,57.9-42.5,69
		c-17.9,6.8-36.3,8.8-55.2,6.5C213.5,336.3,211.9,336.5,209.6,336.5"/>
	<path id="XMLID_15_" class="st1" d="M423.4,259.5c0,11.4,0,20.9,0,30.4c0,1.2-0.2,2.4-0.4,4c-8.5,0-16.8-0.6-25,0.1
		c-12.7,1.1-20.4,9.4-20.6,22.2c-0.5,31.7-0.6,63.3-0.9,94.9c0,2.1,0,4.2,0,6.6h-37.6c-0.1-1.8-0.3-3.5-0.3-5.3
		c-0.1-38.7-0.1-77.4-0.2-116.2c0-7.1,3.5-12,8.7-16c13.2-10.2,28.7-14.8,44.6-17.6C401.8,260.9,412.1,260.5,423.4,259.5"/>
</g>
</svg>
