<?xml version="1.0" encoding="utf-8"?>
<!-- Generator: Adobe Illustrator 19.0.0, SVG Export Plug-In . SVG Version: 6.00 Build 0)  -->
<svg version="1.1" id="Warstwa_1" xmlns="http://www.w3.org/2000/svg" xmlns:xlink="http://www.w3.org/1999/xlink" x="0px" y="0px"
	 viewBox="0 0 595.3 637.8" style="enable-background:new 0 0 595.3 637.8;" xml:space="preserve">
<style type="text/css">
	.st0{clip-path:url(#XMLID_16_);}
</style>
<g id="XMLID_10_">
	<defs>
		<rect id="XMLID_4_" x="47.6" y="44.6" width="500.1" height="559.3"/>
	</defs>
	<clipPath id="XMLID_15_">
		<use xlink:href="#XMLID_4_"  style="overflow:visible;"/>
	</clipPath>
</g>
<path id="XMLID_20_" d="M57.1,67.4h479.4v490.5H57.1V67.4z M35.9,581.3H559V44.5H35.9V581.3z"/>
<g id="XMLID_14_">
	<defs>
		<rect id="XMLID_5_" x="35.9" y="44.5" width="523.1" height="536.8"/>
	</defs>
	<clipPath id="XMLID_16_">
		<use xlink:href="#XMLID_5_"  style="overflow:visible;"/>
	</clipPath>
	<path id="XMLID_17_" class="st0" d="M200.9,291.6c1,0.2,1.8,0.5,2.6,0.5c10.3-0.4,20.7,0,30.9-1.5c12.7-1.9,23.2-8.3,29.1-21.2
		c3.8-8.4,4.8-17.3,4.4-26.4c-1-19.6-10.4-32.7-27.3-37.8c-13-4-26.3-2.3-39.7-2V291.6z M200.7,328.3v4.3c0,27.2,0,54.4,0,81.5
		c0,4.9-0.2,5.1-4.7,5.1c-10,0-20-0.1-30.1,0c-3,0-3.9-1-3.9-4.2c0.1-81,0-161.9,0.1-242.9c0-3.7,1.1-4.8,5.4-5
		c6.4-0.3,12.8-0.6,19.3-0.7c14.9-0.1,29.9-0.4,44.8-0.1c13.6,0.3,26.8,3.3,39.1,9.7c20.8,11,31.9,29.4,35.4,53.2
		c2.3,15.9,1.7,31.8-3.4,47.2c-8.3,25.2-26,39.9-49.7,47.4c-15.3,4.8-31.1,5.5-46.9,4.7C204.3,328.5,202.7,328.4,200.7,328.3"/>
	<path id="XMLID_6_" class="st0" d="M328.2,392.8c0-5.4,0-10.8,0-16.2c0-3.5,0.7-3.9,3.6-2c14.6,9.5,30.5,13.8,47.6,12.5
		c3.2-0.2,6.5-1,9.5-2.2c10.8-4.5,13.9-17.7,5.7-26.4c-5-5.3-11.2-9.4-17.3-13.3c-7.2-4.7-15-8.4-22.2-13
		c-8.7-5.6-16.4-12.6-21.3-22.3c-12.4-24.8-6.3-63.6,30.8-76.2c12.1-4.1,24.5-4.3,36.9-3c7.7,0.8,15.4,2.7,23,4.6
		c4.6,1.2,5.1,2.5,5.1,7.4c0,9.5,0,19,0,28.6c0,3.9-1.3,4.6-4.6,2.7c-14-8-29-11.1-44.8-8.5c-3.3,0.5-6.7,2.2-9.4,4.4
		c-7,5.5-7.7,15.7-1.4,22c4.7,4.6,10.3,8.4,15.9,11.9c8.6,5.4,17.7,9.9,26.1,15.5c11.4,7.6,20.7,17.4,24,31.8
		c6.8,29.2-4.1,60.3-39.1,69.2c-21,5.3-41.7,3.4-61.9-4.7c-4.4-1.8-7-4.2-6.3-9.8C328.6,401.6,328.2,397.1,328.2,392.8"/>
</g>
</svg>
