<?xml version="1.0" encoding="utf-8"?>
<!-- Generator: Adobe Illustrator 19.0.0, SVG Export Plug-In . SVG Version: 6.00 Build 0)  -->
<svg version="1.1" id="Warstwa_1" xmlns="http://www.w3.org/2000/svg" xmlns:xlink="http://www.w3.org/1999/xlink" x="0px" y="0px"
	 viewBox="0 0 595.3 637.8" style="enable-background:new 0 0 595.3 637.8;" xml:space="preserve">
<style type="text/css">
	.st0{clip-path:url(#XMLID_11_);fill:#020203;}
</style>
<g id="XMLID_10_">
	<defs>
		<rect id="XMLID_4_" x="47.6" y="44.6" width="500.1" height="559.3"/>
	</defs>
	<clipPath id="XMLID_11_">
		<use xlink:href="#XMLID_4_"  style="overflow:visible;"/>
	</clipPath>
	<path id="XMLID_13_" class="st0" d="M222.8,335.2c-6.5,4.3-3.1,10.7-2.4,15.5c5,39,10.6,78,16.3,116.9c2.1,14.5,1.9,15.1-11.9,11.4
		c-16.7-4.5-33.3-9.8-50.1-14c-6.9-1.7-8.5-6.1-9-11.4c-2.6-27.1-5-54.2-7.5-81.2c-3.3-36.8-6.6-73.6-10.1-110.3
		c-3.2-34.8-6.5-69.5-10-104.3c-0.8-7.9,3.4-8.3,9.6-8.3c44.1,0.2,244.6,0.1,293.3-0.1c9.4,0,11.9,1.8,10.4,11.7
		c-3,19.2-4.1,38.7-5.6,58.1c-2.9,36.8-5.5,73.5-8,110.3c-0.4,6.1-3.7,7.5-8.9,7.5c-8.7,0-17.5,0.1-26.2,0c-5.8-0.1-7.9,1.4-6.5,8
		c7.9,36.3,14.8,72.9,22.9,109.2c1.8,8.1-0.4,11.3-7.7,13.2c-19.1,5-38.4,9.4-57.1,15.5c-10,3.3-12.1-1.3-12.9-8.5
		c-1.4-12.9-6.7-86.4-10.3-110c-1.4-8.9-1-22.7-5.7-26.4 M533.9,44.6c-78.7,0.5-157.4,0.3-236.1,0.3c-79.1,0-158.3,0.1-237.4-0.2
		c-9.2,0-14.1,1.2-12.4,11.9c1.8,11.2,2.1,22.6,3.1,34c3.4,38,6.8,76,10.2,114c3.4,37.2,7,74.4,10.3,111.6
		c3.2,35.6,6.2,71.2,9.4,106.8c3.4,37.6,7.6,75.1,10.3,112.7c0.6,8.6,3.4,12.1,11.2,14.3c59.6,16.7,119,33.7,178.6,50.3
		c7,2,13.9,5.1,21.8,2.8c63.1-18,126.3-35.6,189.4-53.7c3.4-1,8.1-1.3,8.7-7.1c1.8-19,4.3-37.9,6.1-56.9c3.2-34,5.7-68,8.9-101.9
		c4.4-46.5,9.4-92.9,13.9-139.4c5.9-61.8,11.3-123.6,17.4-185.4C548.6,47.6,545.6,44.6,533.9,44.6"/>
	<path id="XMLID_5_" class="st0" d="M375.9,269.7c5.4,0,8.7-1.7,9.2-7.5c1.3-15.3,2.7-30.7,4.2-46c0.6-6.6-4.1-5.8-8.2-5.9
		c-22-0.5-138,0.1-164.1-0.2c-5.4-0.1-7.2,1.8-6.8,7.2c1.1,14.5,2.1,29.1,2.2,43.6c0,8,3.8,9.2,10.7,9.1c23.2-0.3,46.4-0.2,69.6-0.2
		C320.4,269.6,348.2,269.6,375.9,269.7"/>
</g>
</svg>
