<?xml version="1.0" encoding="utf-8"?>
<!-- Generator: Adobe Illustrator 19.0.0, SVG Export Plug-In . SVG Version: 6.00 Build 0)  -->
<svg version="1.1" id="Warstwa_1" xmlns="http://www.w3.org/2000/svg" xmlns:xlink="http://www.w3.org/1999/xlink" x="0px" y="0px"
	 viewBox="0 0 595.3 637.8" style="enable-background:new 0 0 595.3 637.8;" xml:space="preserve">
<style type="text/css">
	.st0{clip-path:url(#XMLID_13_);fill:#020203;}
</style>
<g id="XMLID_12_">
	<defs>
		<rect id="XMLID_4_" x="25.4" y="115.8" width="543.7" height="409.8"/>
	</defs>
	<clipPath id="XMLID_13_">
		<use xlink:href="#XMLID_4_"  style="overflow:visible;"/>
	</clipPath>
	<path id="XMLID_14_" class="st0" d="M410,425.3c-1.7-1.3-1.5-5.2,4.2-17.6c2.2-4.9,7.3-13.1,16.1-20.9c1.1,3.2,1.7,6.3,1.6,9.2
		C431.8,415.1,418.2,422.3,410,425.3 M337.3,441.9c-2.3,1.2-4.5,2-5.4,1.4c-0.7-0.4,1-2,1-2s11.8-12.7,16.5-18.6
		c2.7-3.4,5.8-7.4,9.2-11.9v1.3C358.6,427.5,343.9,437.7,337.3,441.9z M243.1,396.6c-5.4,13.3-16.9,47.6-23.8,45.7
		c-5.9-1.6-9.6-27.6-1.2-53.2c4.2-12.9,13.3-28.3,18.6-34.3c8.6-9.6,17.9-12.8,20.3-8.9C259.8,351.1,246.5,388.3,243.1,396.6
		 M128.9,474.7c-15.6,17.2-37.6,23.7-46.9,18.2c-10.1-5.9-6.2-31.2,13.1-49.4c11.7-11.1,26.9-21.4,36.9-27.7
		c2.2-1.4,5.6-3.4,9.7-5.9c0.6-0.4,1.1-0.6,1.1-0.6c0.7-0.4,1.6-1,2.4-1.5C152.2,433.8,145.4,456.6,128.9,474.7 M493.4,351.1
		c-19,0.1-35.5,4.7-49.3,11.5c-5.1-10.1-10.2-19-11-25.6c-1-7.7-2.1-12.4-1-21.6c1.2-9.2,6.5-22.2,6.5-23.3c-0.1-1-1.2-5.7-12.1-5.8
		c-10.9-0.1-20.4,2.1-21.5,5c-1.1,2.9-3.2,9.5-4.6,16.3c-1.9,10-21.9,45.6-33.2,64.3c-3.7-7.3-6.9-13.7-7.5-18.8
		c-1-7.7-2.1-12.4-1-21.6c1.2-9.2,6.5-22.2,6.5-23.3c-0.1-1-1.2-5.7-12.1-5.8c-10.9-0.1-20.4,2.1-21.5,5c-1.1,2.9-2.2,9.7-4.6,16.3
		c-2.2,6.6-28.8,66-35.7,81.5c-3.5,7.9-6.6,14.2-8.8,18.5c-2.2,4.3-0.1,0.3-0.3,0.7c-1.9,3.6-3,5.7-3,5.7v0.1
		c-1.5,2.7-3.1,5.2-3.8,5.2c-0.5,0-1.6-7.1,0.2-17c3.9-20.6,13.5-52.8,13.4-53.9c0-0.5,1.8-6.2-6.2-9.1c-7.8-2.9-10.5,1.9-11.2,1.9
		c-0.6,0-1.2,1.7-1.2,1.7s8.6-36.2-16.5-36.2c-15.7,0-37.4,17.2-48.1,32.9c-6.8,3.7-21.2,11.6-36.5,20.1c-5.8,3.2-11.9,6.6-17.6,9.7
		l-1.2-1.3c-30.4-32.6-86.6-55.7-84.2-99.4c0.9-15.9,6.4-57.9,107.9-108.7c83.2-41.6,149.7-30.2,161.3-4.8
		c16.5,36.3-35.6,103.8-122,113.5c-32.9,3.7-50.2-9.1-54.6-13.9c-4.6-5-5.2-5.2-6.9-4.3c-2.8,1.5-1.1,6,0,8.6
		c2.6,6.7,13.2,18.7,31.2,24.7c15.8,5.2,54.5,8.1,101.2-10c52.4-20.4,93.2-77,81.2-124.3c-12.2-48.2-91.7-64-166.7-37.2
		c-44.7,16-93.1,41-128,73.8c-41.4,38.9-48,72.8-45.2,86.9c9.7,50.3,78.6,83.1,106.2,107.3c-1.4,0.7-2.7,1.5-3.8,2.1
		c-13.8,6.8-66.4,34.5-79.5,63.8c-14.9,33.1,2.3,56.9,13.8,60.1c35.5,9.9,71.8-7.9,91.4-37.3c19.5-29.4,17.2-67.5,8.2-84.9l-0.3-0.6
		l10.8-6.4c7-4.2,13.9-8,20-11.3c-3.4,9.3-5.8,20.3-7.1,36.3c-1.5,18.8,6.2,43.2,16.3,52.8c4.5,4.2,9.8,4.3,13.1,4.3
		c11.7,0,17-9.7,22.8-21.4c7.2-14.2,13.6-30.7,13.6-30.7s-8,44.5,13.8,44.5c8,0,15.9-10.4,19.5-15.7v0.1c0,0,0.2-0.3,0.6-1.1
		c0.4-0.7,0.9-1.3,1.3-2v-0.2c3.2-5.6,10.3-18.3,20.9-39.3c13.7-27.1,26.9-61.1,26.9-61.1s1.3,8.3,5.2,22c2.3,8.1,7.4,17,11.4,25.6
		c-3.2,4.5-5.1,7-5.1,7l0.1,0.1c-2.5,3.4-5.4,7-8.4,10.7c-10.8,13-23.8,27.9-25.5,32.2c-2,5-1.6,8.8,2.3,11.7
		c2.9,2.1,8,2.6,13.4,2.1c9.8-0.6,16.6-3.1,20-4.6c5.3-1.9,11.4-4.8,17.2-9.1c10.6-7.9,17.1-19.1,16.5-34.1c-0.3-8.2-3-16.3-6.3-24
		c1-1.4,1.9-2.8,2.9-4.3c16.8-24.7,29.7-51.8,29.7-51.8s1.3,8.3,5.2,22c2,6.9,6.1,14.5,9.7,22c-15.7,12.9-25.6,27.9-29,37.7
		c-6.3,18.2-1.4,26.4,7.9,28.3c4.1,0.9,10.1-1.1,14.5-3c5.5-1.8,12.2-4.9,18.4-9.5c10.6-7.9,20.8-18.9,20.3-33.7
		c-0.3-6.8-2.1-13.6-4.6-20c13.4-5.6,30.7-8.8,52.7-6.1c47.3,5.6,56.6,35.2,54.8,47.6c-1.8,12.4-11.7,19.2-15,21.4
		c-3.3,2-4.4,2.8-4,4.3c0.4,2.2,1.9,2.1,4.8,1.7c3.9-0.6,24.8-10.2,25.7-33C570.3,382.9,542.6,350.8,493.4,351.1z"/>
</g>
</svg>
