<?xml version="1.0" encoding="utf-8"?>
<!-- Generator: Adobe Illustrator 19.0.0, SVG Export Plug-In . SVG Version: 6.00 Build 0)  -->
<svg version="1.1" id="Warstwa_1" xmlns="http://www.w3.org/2000/svg" xmlns:xlink="http://www.w3.org/1999/xlink" x="0px" y="0px"
	 viewBox="0 0 595.3 637.8" style="enable-background:new 0 0 595.3 637.8;" xml:space="preserve">
<style type="text/css">
	.st0{clip-path:url(#XMLID_14_);}
</style>
<g id="XMLID_13_">
	<defs>
		<rect id="XMLID_4_" x="35.3" y="52.2" width="523.9" height="534.6"/>
	</defs>
	<clipPath id="XMLID_14_">
		<use xlink:href="#XMLID_4_"  style="overflow:visible;"/>
	</clipPath>
	<path id="XMLID_19_" class="st0" d="M543.6,319.7c0.3-138.8-109.9-251.4-246.2-251.5C161.4,68,51.5,180,51,319.1
		c-0.5,138.6,109.6,251.3,246,251.7C432.9,571.2,543.3,458.8,543.6,319.7 M297.1,52.2c144.5-0.3,261.6,119,262.1,267
		c0.5,147.4-117.2,267.7-262,267.6C152.4,586.7,35.5,467.4,35.3,319.6C35.1,172.1,152.1,52.5,297.1,52.2"/>
	<path id="XMLID_9_" class="st0" d="M242.9,455.9c-26.6-80.7-52.8-160.4-79.2-240.6c5.7-0.5,11.1-1,16.5-1.5
		c2.7-0.2,5.5-0.5,8.2-0.8c5.3-0.7,8.7-4.8,8.3-9.9c-0.4-5.4-4.4-8.9-9.9-8.6c-15.2,0.8-30.3,1.9-45.5,2.6
		c-7.4,0.3-14.9,0.2-22.4,0.2c-1,0-2-0.3-3.1-0.4c70.8-114,232.2-134,327.5-42.5c-4.2,0.9-8.8,1.3-13,2.8
		c-15.7,5.5-26.1,22.8-24.8,40.1c0.9,11.5,5.3,21.7,10.7,31.5c5.7,10.2,11.9,20.2,17.1,30.6c13.5,26.6,14.7,54.7,6.7,83
		c-10,35.2-20.9,70.2-31.4,105.3c-0.6,1.9-1.2,3.8-2.1,6.7c-26.4-80.1-52.5-159.3-78.8-239.1c5.6-0.5,10.7-1,15.8-1.4
		c2.9-0.3,5.7-0.5,8.6-0.9c5.8-0.7,9-4.6,8.5-10.4c-0.5-5.2-4.5-8.4-10.3-8.1c-14.3,0.8-28.5,2.3-42.8,2.3
		c-19.4,0.1-38.7-0.8-58.1-1.4c-4.4-0.1-8.9-0.7-13.3-1c-5.7-0.4-9.8,3.1-10.3,8.7c-0.4,5.4,2.8,9.2,8.6,9.8
		c6.4,0.7,12.8,1.3,19.2,1.8c2.4,0.2,3.6,1,4.5,3.4c10.5,29.7,21.2,59.4,31.7,89.2c0.6,1.7,0.6,4,0,5.7
		c-15,46.2-30.1,92.4-45.2,138.7C244.1,452.8,243.7,453.8,242.9,455.9"/>
	<path id="XMLID_8_" class="st0" d="M369.4,529.9c-44.3,15.3-88.6,16.6-133.7,3.4c21.8-64.6,43.4-128.8,65.5-194.2
		C324.1,403.3,346.7,466.3,369.4,529.9"/>
	<path id="XMLID_6_" class="st0" d="M201.7,519.5C89.8,464.5,52.2,328.9,98,229.6C132.6,326.2,167,422.4,201.7,519.5"/>
	<path id="XMLID_5_" class="st0" d="M407.3,511.7c5.6-16.5,10.9-32.2,16.2-47.9c16.4-48.5,32.7-97.1,49.4-145.6
		c6-17.3,12-34.4,15-52.5c2.7-16.9,3.2-33.7,1.4-50.8C538.9,300.1,522.2,442.6,407.3,511.7"/>
</g>
</svg>
